<?xml version="1.0" encoding="utf-8"?>
<!-- Generator: Adobe Illustrator 23.1.1, SVG Export Plug-In . SVG Version: 6.00 Build 0)  -->
<svg version="1.1" id="Layer_1" xmlns="http://www.w3.org/2000/svg" xmlns:xlink="http://www.w3.org/1999/xlink" x="0px" y="0px"
	 viewBox="0 0 336 56" style="enable-background:new 0 0 336 56;" xml:space="preserve">
<style type="text/css">
	.st0{fill:#1D272D;}
</style>
<g>
	<path class="st0" d="M12.29004,33.68213V51.3877h-7.3667V5.76709h15.50879c5.25537,0,9.20801,1.24951,11.85742,3.74756
		c2.64941,2.49902,3.97412,5.92383,3.97412,10.27441c0,4.30811-1.35693,7.70068-4.0708,10.17773
		c-2.71436,2.47754-6.63477,3.71533-11.76074,3.71533H12.29004z M28.76807,19.78906c0-2.58447-0.72217-4.55566-2.16504-5.9126
		c-1.44385-1.35693-3.75879-2.03564-6.94629-2.03564h-7.3667v15.83203h7.3667
		C25.73096,27.67285,28.76807,25.04541,28.76807,19.78906z"/>
	<path class="st0" d="M73.80664,41.50098H54.55029l-3.48926,9.88672h-7.88379L59.97852,6.47754h8.46484L85.17969,51.3877H77.2959
		L73.80664,41.50098z M71.73877,35.81445l-7.56006-21.32422l-7.56055,21.32422H71.73877z"/>
	<path class="st0" d="M118.52197,51.3877l-11.37256-18.22266h-5.23438V51.3877h-7.3667V5.76709h16.09033
		c5.21191,0,9.16455,1.271,11.85742,3.8125c2.69189,2.54199,4.03857,5.90234,4.03857,10.08008
		c0,3.57666-1.00146,6.50537-3.00439,8.78857c-2.00342,2.28369-4.90137,3.74756-8.69141,4.39404l11.95459,18.54541H118.52197z
		 M101.91504,27.93115h8.14209c5.94482,0,8.91748-2.62744,8.91748-7.8833c0-2.49805-0.72217-4.44775-2.16504-5.84814
		c-1.44385-1.39941-3.69434-2.1001-6.75244-2.1001h-8.14209V27.93115z"/>
	<path class="st0" d="M164.27148,41.50098h-19.25635l-3.48926,9.88672h-7.88379l16.80127-44.91016h8.46484l16.73633,44.91016
		h-7.88379L164.27148,41.50098z M162.20361,35.81445l-7.56006-21.32422l-7.56055,21.32422H162.20361z"/>
	<path class="st0" d="M219.45557,9.38574c3.61865,2.67139,6.00977,6.31104,7.17285,10.92041h-7.75439
		c-0.99121-2.45557-2.61719-4.41553-4.87842-5.88037c-2.26172-1.46387-4.94336-2.19727-8.04541-2.19727
		c-2.84326,0-5.39551,0.66846-7.65723,2.00342c-2.26172,1.33594-4.02832,3.23096-5.29883,5.68652
		c-1.271,2.45557-1.90625,5.34229-1.90625,8.65869c0,3.48975,0.64648,6.48438,1.93848,8.98193
		c1.29248,2.49902,3.11182,4.40527,5.46045,5.71875c2.34766,1.31494,5.07275,1.97119,8.17432,1.97119
		c3.79053,0,7.04346-1.17334,9.75732-3.52197c2.71387-2.34717,4.35059-5.56738,4.91113-9.66016h-16.73633v-5.42822h22.93994v7.04346
		c-0.51709,3.36035-1.7124,6.4082-3.58643,9.14355c-1.87402,2.73633-4.35156,4.92236-7.43115,6.55859
		c-3.08057,1.6377-6.60254,2.45557-10.56543,2.45557c-4.4375,0-8.35791-0.99023-11.76025-2.97217
		c-3.40381-1.98096-6.03174-4.72754-7.88379-8.23877c-1.85254-3.51074-2.77832-7.52832-2.77832-12.05176
		c0-4.52295,0.92578-8.53955,2.77832-12.05127c1.85205-3.51074,4.46875-6.24561,7.85107-8.20654
		c3.38135-1.95996,7.29102-2.93994,11.72852-2.93994C211.31348,5.37939,215.83691,6.71484,219.45557,9.38574z"/>
	<path class="st0" d="M271.44141,8.15771c3.42383,1.98193,6.11719,4.74951,8.07617,8.30371
		c1.96094,3.55371,2.94141,7.57129,2.94141,12.05127c0,4.48096-0.98047,8.49756-2.94141,12.05127
		c-1.95898,3.5542-4.65234,6.33252-8.07617,8.33594c-3.42578,2.00293-7.24854,3.00488-11.47021,3.00488
		c-4.26465,0-8.10938-1.00195-11.53418-3.00488c-3.4248-2.00342-6.12891-4.78174-8.10986-8.33594
		c-1.98193-3.55371-2.97217-7.57031-2.97217-12.05127c0-4.47998,0.99023-8.49756,2.97217-12.05127
		c1.98096-3.5542,4.68506-6.32178,8.10986-8.30371c3.4248-1.98096,7.26953-2.97217,11.53418-2.97217
		C264.19287,5.18555,268.01562,6.17676,271.44141,8.15771z M252.15234,14.03809c-2.28369,1.33594-4.06055,3.25293-5.33105,5.75098
		c-1.271,2.49902-1.90625,5.40674-1.90625,8.72363c0,3.31787,0.63525,6.22559,1.90625,8.72363
		c1.27051,2.49902,3.04736,4.41602,5.33105,5.75098c2.2832,1.33594,4.88916,2.00293,7.81885,2.00293
		c2.88574,0,5.46045-0.66699,7.72217-2.00293c2.26172-1.33496,4.02734-3.25195,5.29883-5.75098
		c1.26953-2.49805,1.90625-5.40576,1.90625-8.72363c0-3.31689-0.63672-6.22461-1.90625-8.72363
		c-1.27148-2.49805-3.03711-4.41504-5.29883-5.75098c-2.26172-1.33496-4.83643-2.00342-7.72217-2.00342
		C257.0415,12.03467,254.43555,12.70312,252.15234,14.03809z"/>
	<path class="st0" d="M330.66406,51.3877h-7.36719l-22.16406-33.6665v33.6665h-7.36621V5.83154h7.36621l22.16406,33.79541V5.83154
		h7.36719V51.3877z"/>
</g>
</svg>
